# xmcd
#
# Track frame offsets: 
#        150
#        11400
#        31500
#        44400
#        63750
#        74925
#        87000
#        98700
#        130200
#        145875
#        163875
#        176250
#        190125
#        200550
#        210000
#        225225
#        237750
#        250475
#        263400
#        274050
#        290475
#        304950
#        319125
#
# Disc length: 4501 seconds
#
# Revision: 3
# Processed by: cddbd v1.5.2PL0 Copyright (c) Steve Scherf et al.
# Submitted via: ExactAudioCopyFreeDBPlugin 1.0
#
DISCID=3b119317
DTITLE=Nina Simone - Wild Is the Wind (1965) - High Priestess of Soul (
DTITLE=1966)
DYEAR=1990
DGENRE=Soul
TTITLE0=I Love Your Lovin' Ways
TTITLE1=Four Women
TTITLE2=What More Can I Say
TTITLE3=Lilac Wine
TTITLE4=That's All I Ask
TTITLE5=Break Down And Let It All Out
TTITLE6=Why Keep On Breaking My Heart
TTITLE7=Wild Is The Wind
TTITLE8=Black Is The Color Of My True Love's Hair
TTITLE9=If I Should Loose You
TTITLE10=Either Way I Loose
TTITLE11=Don't You Pay Them No Mind
TTITLE12=I'm Gonna Leave You
TTITLE13=Brown Eyed Handsome Man
TTITLE14=Keeper Of The Flame
TTITLE15=The Gal From Joe's
TTITLE16=Take Me To The Water
TTITLE17=I'm Going Back Home
TTITLE18=I Hold No Grudge
TTITLE19=Come Ye
TTITLE20=He Ain't Coming Home No More
TTITLE21=Work Song
TTITLE22=I Love My Baby
EXTD=
EXTT0=
EXTT1=
EXTT2=
EXTT3=
EXTT4=
EXTT5=
EXTT6=
EXTT7=
EXTT8=
EXTT9=
EXTT10=
EXTT11=
EXTT12=
EXTT13=
EXTT14=
EXTT15=
EXTT16=
EXTT17=
EXTT18=
EXTT19=
EXTT20=
EXTT21=
EXTT22=
PLAYORDER=
